HIERARCHY
ROOT Hips
{
  OFFSET 56.2857 93.6841 12.2888
  CHANNELS 6 Xposition Yposition Zposition Zrotation Xrotation Yrotation
  JOINT spine
  {
    OFFSET 0 7.4756 0.429885
    CHANNELS 3 Zrotation Xrotation Yrotation
    JOINT spine1
    {
      OFFSET 0 9.92301 0
      CHANNELS 3 Zrotation Xrotation Yrotation
      JOINT spine2
      {
        OFFSET 0 9.50804 0
        CHANNELS 3 Zrotation Xrotation Yrotation
        JOINT Neck
        {
          OFFSET 0 24.4111 1.16384
          CHANNELS 3 Zrotation Xrotation Yrotation
          JOINT Head
          {
            OFFSET 0 7.37523 0
            CHANNELS 3 Zrotation Xrotation Yrotation
            End Site
            {
              OFFSET 0 17.8522 -5.88741
            }
          }
        }
        JOINT RightShoulder
        {
          OFFSET -4.00356 10.2679 -0.557468
          CHANNELS 3 Zrotation Xrotation Yrotation
          JOINT RightArm
          {
            OFFSET 0 13.4673 0
            CHANNELS 3 Zrotation Xrotation Yrotation
            JOINT RightArmRoll
            {
              OFFSET 0 6.79858 0
              CHANNELS 3 Zrotation Xrotation Yrotation
              JOINT RightForeArm
              {
                OFFSET 0 19.8018 0
                CHANNELS 3 Zrotation Xrotation Yrotation
                JOINT RightForeArmRoll
                {
                  OFFSET 0 7.62905 0
                  CHANNELS 3 Zrotation Xrotation Yrotation
                  JOINT RightHand
                  {
                    OFFSET 0 15.3098 0
                    CHANNELS 3 Zrotation Xrotation Yrotation
                    End Site
                    {
                      OFFSET 0 0 0
                    }
                  }
                }
              }
            }
          }
        }
        JOINT LeftShoulder
        {
          OFFSET 4.00356 10.2679 -0.557468
          CHANNELS 3 Zrotation Xrotation Yrotation
          JOINT LeftArm
          {
            OFFSET 0 13.4673 0
            CHANNELS 3 Zrotation Xrotation Yrotation
            JOINT LeftArmRoll
            {
              OFFSET 0 6.79858 0
              CHANNELS 3 Zrotation Xrotation Yrotation
              JOINT LeftForeArm
              {
                OFFSET 0 19.8018 0
                CHANNELS 3 Zrotation Xrotation Yrotation
                JOINT LeftForeArmRoll
                {
                  OFFSET 0 7.62905 0
                  CHANNELS 3 Zrotation Xrotation Yrotation
                  JOINT LeftHand
                  {
                    OFFSET 0 15.3098 0
                    CHANNELS 3 Zrotation Xrotation Yrotation
                    End Site
                    {
                      OFFSET 0 0 0
                    }
                  }
                }
              }
            }
          }
        }
      }
    }
  }
  JOINT RightUpLeg
  {
    OFFSET -6.62609 -1.21505 -1.01927
    CHANNELS 3 Zrotation Xrotation Yrotation
    JOINT RightUpLegRoll
    {
      OFFSET 0 17.9517 0
      CHANNELS 3 Zrotation Xrotation Yrotation
      JOINT RightLeg
      {
        OFFSET 0 -22.2304 0
        CHANNELS 3 Zrotation Xrotation Yrotation
        JOINT RightLegRoll
        {
          OFFSET 0 22.3032 0
          CHANNELS 3 Zrotation Xrotation Yrotation
          JOINT RightFoot
          {
            OFFSET 0 18.5636 0
            CHANNELS 3 Zrotation Xrotation Yrotation
            JOINT RightToeBase
            {
              OFFSET 0 15.5183 0
              CHANNELS 3 Zrotation Xrotation Yrotation
              End Site
              {
                OFFSET 0.00657761 7.51538 -0.866263
              }
            }
          }
        }
      }
    }
  }
  JOINT LeftUpLeg
  {
    OFFSET 6.62609 -1.21505 -1.01927
    CHANNELS 3 Zrotation Xrotation Yrotation
    JOINT LeftUpLegRoll
    {
      OFFSET 0 17.9518 0
      CHANNELS 3 Zrotation Xrotation Yrotation
      JOINT LeftLeg
      {
        OFFSET 0 22.2303 0
        CHANNELS 3 Zrotation Xrotation Yrotation
        JOINT LeftLegRoll
        {
          OFFSET 0 22.5093 0
          CHANNELS 3 Zrotation Xrotation Yrotation
          JOINT LeftFoot
          {
            OFFSET 0 18.3575 0
            CHANNELS 3 Zrotation Xrotation Yrotation
            JOINT LeftToeBase
            {
              OFFSET 0 15.5183 0
              CHANNELS 3 Zrotation Xrotation Yrotation
              End Site
              {
                OFFSET -0.029478 7.51539 -0.866263
              }
            }
          }
        }
      }
    }
  }
}
MOTION
Frames: 12
Frame Time: 0.00208333
55.1312 93.5138 11.5133 -1.40591 -3.62735 -3.11719 0.289312 -1.19019 0.303969 0.581862 1.62384 0.566165 0.575426 3.26883 0.556747 -7.51027 7.16524 -1.6681 8.5541 2.07671 -2.61938 73.1402 -0.0173349 -1.6881 96.2329 11.0025 23.1695 -3.37999e-005 -2.29057e-007 -7.70357e-006 4.88957 0.0433364 -1.24094 8.39568e-006 -7.95179e-007 -3.0436 8.02957 -4.95143 0.697653 -72.3359 -3.46797 3.2014 -99.3575 9.52298 -16.3684 -1.05817e-005 2.37495e-006 -2.31325e-009 -8.04286 0.835731 0.744963 7.79096e-006 1.62124e-007 3.00891 -8.02913 -4.95145 -0.697663 -177.988 -0.124343 -2.71306 180 7.0156e-015 178.983 179.117 6.60084 179.664 3.03726e-006 -2.56543e-006 0.0198459 -17.9311 67.0969 18.824 8.13649 25.2326 -3.48773 -179.213 0.978212 3.43598 4.57705e-006 1.05463e-005 -1.08189 -1.6138 -9.36758 0.145158 1.73641e-006 -6.72669e-007 -0.169434 19.8019 69.4108 -20.7859 -8.13649 25.2327 3.48774 
55.1389 93.5128 11.5337 -1.39648 -3.6421 -3.10667 0.290629 -1.18762 0.305663 0.584509 1.62899 0.569726 0.578042 3.27399 0.560267 -7.54598 7.19367 -1.66384 8.5778 2.06093 -2.6217 73.0855 -0.0186446 -1.68276 96.2523 11.0421 23.1538 -3.37999e-005 -2.29057e-007 -7.70357e-006 4.89003 0.0433364 -1.24173 8.39568e-006 -7.95179e-007 -3.0436 8.02957 -4.95143 0.697653 -72.3638 -3.45537 3.19764 -99.3177 9.61471 -16.3837 -1.05817e-005 2.37495e-006 -2.31325e-009 -8.01597 0.789325 0.741186 7.79096e-006 1.62124e-007 3.00891 -8.02913 -4.95145 -0.697663 -178.001 -0.127042 -2.70461 180 7.0156e-015 178.983 179.119 6.62041 179.662 3.03726e-006 -2.56543e-006 0.020535 -17.932 67.098 18.8249 8.13649 25.2326 -3.48773 -179.226 0.957551 3.4433 4.57705e-006 1.05463e-005 -1.08194 -1.6127 -9.35136 0.145003 1.73641e-006 -6.72669e-007 -0.169448 19.7996 69.4085 -20.7826 -8.13649 25.2327 3.48774 
55.1439 93.5058 11.5237 -1.38709 -3.65768 -3.09673 0.291951 -1.1849 0.307445 0.587165 1.63446 0.573463 0.580665 3.27945 0.563963 -7.58152 7.22231 -1.65958 8.60119 2.04478 -2.62399 73.031 -0.0201918 -1.67755 96.2711 11.0824 23.1376 -3.37999e-005 -2.29057e-007 -7.70357e-006 4.89082 0.0433364 -1.2425 8.39568e-006 -7.95179e-007 -3.0436 8.02957 -4.95143 0.697653 -72.3919 -3.44236 3.19371 -99.2778 9.70564 -16.3996 -1.05817e-005 2.37495e-006 -2.31325e-009 -7.9889 0.741523 0.737166 7.79096e-006 1.62124e-007 3.00891 -8.02913 -4.95145 -0.697663 -178.014 -0.13082 -2.69583 180 7.0156e-015 178.983 179.12 6.63965 179.66 3.03726e-006 -2.56543e-006 0.0212371 -17.9327 67.0989 18.8258 8.13649 25.2326 -3.48773 -179.239 0.935603 3.45063 4.57705e-006 1.05463e-005 -1.08201 -1.61153 -9.33476 0.14483 1.73641e-006 -6.72669e-007 -0.169469 19.7972 69.4061 -20.7792 -8.13649 25.2327 3.48774 
55.1511 93.5044 11.5001 -1.37772 -3.67382 -3.08719 0.293275 -1.18206 0.309289 0.589827 1.64015 0.577322 0.583292 3.28514 0.567782 -7.61694 7.2511 -1.65534 8.62436 2.02838 -2.62627 72.9766 -0.0219052 -1.67244 96.2896 11.1234 23.121 -3.37999e-005 -2.29057e-007 -7.70357e-006 4.89185 0.0433363 -1.24325 8.39568e-006 -7.95179e-007 -3.0436 8.02957 -4.95143 0.697653 -72.4204 -3.42906 3.18966 -99.2378 9.79599 -16.4159 -1.05817e-005 2.37495e-006 -2.31325e-009 -7.96169 0.692744 0.732976 7.79096e-006 1.62124e-007 3.00891 -8.02913 -4.95145 -0.697663 -178.027 -0.135352 -2.6868 180 7.0156e-015 178.983 179.121 6.65867 179.658 3.03726e-006 -2.56543e-006 0.0219482 -17.9334 67.0998 18.8266 8.13649 25.2326 -3.48773 -179.252 0.912755 3.45797 4.57705e-006 1.05463e-005 -1.08209 -1.61029 -9.3179 0.144644 1.73641e-006 -6.72669e-007 -0.169495 19.7948 69.4038 -20.7757 -8.13649 25.2327 3.48774 
55.1559 93.5153 11.5022 -1.36836 -3.69029 -3.07788 0.294602 -1.17917 0.311168 0.592491 1.64596 0.581252 0.585922 3.29095 0.571671 -7.65229 7.27997 -1.6511 8.64741 2.01183 -2.62855 72.9222 -0.0237136 -1.66738 96.308 11.1646 23.1042 -3.37999e-005 -2.29057e-007 -7.70357e-006 4.89302 0.0433362 -1.244 8.39568e-006 -7.95179e-007 -3.0436 8.02957 -4.95143 0.697653 -72.4489 -3.41559 3.18554 -99.1977 9.88601 -16.4324 -1.05817e-005 2.37495e-006 -2.31325e-009 -7.93441 0.643407 0.728688 7.79096e-006 1.62124e-007 3.00891 -8.02913 -4.95145 -0.697663 -178.04 -0.140316 -2.67764 180 7.0156e-015 178.983 179.122 6.67751 179.656 3.03726e-006 -2.56543e-006 0.0226645 -17.934 67.1006 18.8274 8.13649 25.2326 -3.48773 -179.266 0.889392 3.46531 4.57705e-006 1.05463e-005 -1.08218 -1.60901 -9.30089 0.144451 1.73641e-006 -6.72669e-007 -0.169524 19.7924 69.4014 -20.7723 -8.13649 25.2327 3.48774 
55.1553 93.5077 11.454 -1.359 -3.70684 -3.06862 0.295928 -1.17626 0.313055 0.595156 1.65179 0.585199 0.588552 3.29678 0.575578 -7.68763 7.30886 -1.64686 8.67042 1.99524 -2.63082 72.8679 -0.0255457 -1.66233 96.3262 11.206 23.0874 -3.37999e-005 -2.29057e-007 -7.70357e-006 4.89421 0.0433361 -1.24475 8.39568e-006 -7.95179e-007 -3.0436 8.02957 -4.95143 0.697653 -72.4775 -3.40207 3.18141 -99.1575 9.97593 -16.449 -1.05817e-005 2.37495e-006 -2.31325e-009 -7.90712 0.59393 0.724377 7.79096e-006 1.62124e-007 3.00891 -8.02913 -4.95145 -0.697663 -178.053 -0.145388 -2.66844 180 7.0156e-015 178.983 179.123 6.69634 179.654 3.03726e-006 -2.56543e-006 0.023382 -17.9346 67.1014 18.8281 8.13649 25.2326 -3.48773 -179.279 0.865901 3.47265 4.57705e-006 1.05463e-005 -1.08227 -1.60773 -9.28384 0.144257 1.73641e-006 -6.72669e-007 -0.169553 19.79 69.3991 -20.7688 -8.13649 25.2327 3.48774 
55.1608 93.508 11.4557 -1.34962 -3.72323 -3.05925 0.297253 -1.17338 0.314925 0.597818 1.65757 0.589111 0.591179 3.30256 0.57945 -7.72301 7.33771 -1.64262 8.6935 1.97873 -2.6331 72.8136 -0.0273304 -1.65726 96.3447 11.2472 23.0707 -3.37999e-005 -2.29057e-007 -7.70357e-006 4.89534 0.0433361 -1.2455 8.39568e-006 -7.95179e-007 -3.0436 8.02957 -4.95143 0.697653 -72.506 -3.38864 3.17731 -99.1172 10.066 -16.4656 -1.05817e-005 2.37495e-006 -2.31325e-009 -7.87988 0.544732 0.720116 7.79096e-006 1.62124e-007 3.00891 -8.02913 -4.95145 -0.697663 -178.066 -0.150244 -2.65931 180 7.0156e-015 178.982 179.124 6.71522 179.652 3.03726e-006 -2.56543e-006 0.024097 -17.9353 67.1023 18.8289 8.13649 25.2326 -3.48773 -179.293 0.842668 3.47999 4.57705e-006 1.05463e-005 -1.08236 -1.60647 -9.26686 0.144066 1.73641e-006 -6.72669e-007 -0.169581 19.7876 69.3967 -20.7653 -8.13649 25.2327 3.48774 
55.1634 93.5127 11.4894 -1.34022 -3.73921 -3.04959 0.298576 -1.17057 0.316751 0.600475 1.6632 0.592935 0.593802 3.30818 0.583234 -7.75848 7.36645 -1.63838 8.71673 1.9624 -2.63539 72.7591 -0.0289963 -1.65212 96.3634 11.288 23.0542 -3.37999e-005 -2.29057e-007 -7.70357e-006 4.8963 0.043336 -1.24626 8.39568e-006 -7.95179e-007 -3.0436 8.02957 -4.95143 0.697653 -72.5344 -3.37542 3.1733 -99.077 10.1565 -16.482 -1.05817e-005 2.37495e-006 -2.31325e-009 -7.85274 0.496232 0.715977 7.79096e-006 1.62124e-007 3.00891 -8.02913 -4.95145 -0.697663 -178.079 -0.154561 -2.65036 180 7.0156e-015 178.982 179.126 6.7343 179.65 3.03726e-006 -2.56543e-006 0.0248055 -17.936 67.1032 18.8297 8.13649 25.2326 -3.48773 -179.306 0.820079 3.48733 4.57705e-006 1.05463e-005 -1.08244 -1.60525 -9.25007 0.143884 1.73641e-006 -6.72669e-007 -0.169606 19.7852 69.3943 -20.7619 -8.13649 25.2327 3.48774 
55.1699 93.4981 11.4698 -1.33078 -3.75454 -3.03948 0.299896 -1.16789 0.318507 0.603124 1.66857 0.596619 0.596419 3.31356 0.586877 -7.7941 7.39503 -1.63412 8.7402 1.94636 -2.63769 72.7046 -0.0304723 -1.64687 96.3825 11.3282 23.0382 -3.37999e-005 -2.29057e-007 -7.70357e-006 4.89699 0.043336 -1.24704 8.39568e-006 -7.95179e-007 -3.0436 8.02957 -4.95143 0.697653 -72.5624 -3.36253 3.16942 -99.0368 10.2475 -16.498 -1.05817e-005 2.37495e-006 -2.31326e-009 -7.82576 0.448848 0.712033 7.79096e-006 1.62124e-007 3.00891 -8.02913 -4.95145 -0.697663 -178.092 -0.158016 -2.64167 180 7.0156e-015 178.982 179.127 6.75363 179.649 3.03726e-006 -2.56543e-006 0.0255037 -17.9367 67.1042 18.8306 8.13649 25.2326 -3.48773 -179.319 0.798519 3.49466 4.57705e-006 1.05463e-005 -1.0825 -1.60409 -9.23359 0.143716 1.73641e-006 -6.72669e-007 -0.169625 19.7829 69.392 -20.7585 -8.13649 25.2327 3.48774 
55.2006 93.5042 11.4902 -1.32129 -3.76897 -3.02874 0.30121 -1.16538 0.320165 0.605762 1.6736 0.600111 0.599026 3.31859 0.590328 -7.82992 7.42338 -1.62984 8.76401 1.93072 -2.64001 72.6498 -0.031687 -1.64148 96.4023 11.3676 23.0228 -3.37999e-005 -2.29057e-007 -7.70357e-006 4.89732 0.0433359 -1.24783 8.39568e-006 -7.95179e-007 -3.0436 8.02957 -4.95143 0.697653 -72.5901 -3.3501 3.16573 -98.9967 10.3395 -16.5135 -1.05817e-005 2.37495e-006 -2.31326e-009 -7.799 0.402999 0.708358 7.79096e-006 1.62124e-007 3.00891 -8.02913 -4.95145 -0.697663 -178.105 -0.160283 -2.63336 180 7.0156e-015 178.982 179.129 6.77334 179.647 3.03726e-006 -2.56543e-006 0.0261877 -17.9376 67.1053 18.8315 8.13649 25.2326 -3.48773 -179.332 0.778374 3.50198 4.57705e-006 1.05463e-005 -1.08254 -1.60303 -9.21751 0.143568 1.73641e-006 -6.72669e-007 -0.169636 19.7806 69.3897 -20.7553 -8.13649 25.2327 3.48774 
55.1986 93.514 11.481 -1.31174 -3.78226 -3.01719 0.302519 -1.16309 0.321701 0.608387 1.67821 0.603357 0.601624 3.32319 0.593534 -7.86599 7.45143 -1.62555 8.78825 1.9156 -2.64236 72.5948 -0.0325693 -1.6359 96.4229 11.4058 23.0081 -3.37999e-005 -2.29057e-007 -7.70357e-006 4.89717 0.043336 -1.24864 8.39568e-006 -7.95179e-007 -3.0436 8.02957 -4.95143 0.697653 -72.6173 -3.33826 3.16227 -98.9566 10.4326 -16.5284 -1.05817e-005 2.37495e-006 -2.31324e-009 -7.77252 0.359104 0.705024 7.79096e-006 1.62124e-007 3.00891 -8.02913 -4.95145 -0.697663 -178.117 -0.161041 -2.62552 180 7.0156e-015 178.982 179.13 6.79354 179.645 3.03726e-006 -2.56543e-006 0.0268536 -17.9386 67.1066 18.8326 8.13649 25.2326 -3.48773 -179.345 0.760031 3.50929 4.57705e-006 1.05463e-005 -1.08254 -1.6021 -9.20197 0.143445 1.73641e-006 -6.72669e-007 -0.169638 19.7783 69.3874 -20.7522 -8.13649 25.2327 3.48774 
55.1932 93.5146 11.4751 -1.3021 -3.79417 -3.00468 0.303819 -1.16106 0.323086 0.610997 1.68228 0.606305 0.604208 3.32726 0.596441 -7.90236 7.47913 -1.62123 8.81301 1.9011 -2.64474 72.5396 -0.0330479 -1.6301 96.4444 11.4427 22.9943 -3.37999e-005 -2.29057e-007 -7.70357e-006 4.89646 0.043336 -1.24949 8.39568e-006 -7.95179e-007 -3.0436 8.02957 -4.95143 0.697653 -72.644 -3.32712 3.15909 -98.9168 10.527 -16.5424 -1.05817e-005 2.37495e-006 -2.31325e-009 -7.74636 0.317581 0.702106 7.79096e-006 1.62124e-007 3.00891 -8.02913 -4.95145 -0.697663 -178.129 -0.159965 -2.61826 180 7.0156e-015 178.981 179.133 6.81432 179.643 3.03726e-006 -2.56543e-006 0.0274976 -17.9397 67.108 18.8337 8.13649 25.2326 -3.48773 -179.358 0.743875 3.5166 4.57705e-006 1.05463e-005 -1.08251 -1.60131 -9.18705 0.143352 1.73641e-006 -6.72669e-007 -0.169628 19.7762 69.3851 -20.7492 -8.13649 25.2327 3.48774 
